<mxfile host="app.diagrams.net" agent="Mozilla/5.0 (Windows NT 10.0; Win64; x64) AppleWebKit/537.36 (KHTML, like Gecko) Chrome/130.0.0.0 Safari/537.36" version="24.8.3">
  <diagram id="R2lEEEUBdFMjLlhIrx00" name="Page-1">
    <mxGraphModel dx="1909" dy="2135" grid="1" gridSize="10" guides="1" tooltips="1" connect="1" arrows="1" fold="1" page="1" pageScale="1" pageWidth="850" pageHeight="1100" math="0" shadow="0" extFonts="Permanent Marker^https://fonts.googleapis.com/css?family=Permanent+Marker">
      <root>
        <mxCell id="0" />
        <mxCell id="1" parent="0" />
        <mxCell id="Bw7EAKAciVcx9pnnwqS2-117" style="edgeStyle=orthogonalEdgeStyle;rounded=0;orthogonalLoop=1;jettySize=auto;html=1;exitX=0.75;exitY=1;exitDx=0;exitDy=0;entryX=0;entryY=0.75;entryDx=0;entryDy=0;" edge="1" parent="1" source="Bw7EAKAciVcx9pnnwqS2-1" target="Bw7EAKAciVcx9pnnwqS2-96">
          <mxGeometry relative="1" as="geometry">
            <Array as="points">
              <mxPoint x="540" y="151" />
              <mxPoint x="540" y="170" />
              <mxPoint x="120" y="170" />
              <mxPoint x="120" y="-15" />
            </Array>
          </mxGeometry>
        </mxCell>
        <mxCell id="Bw7EAKAciVcx9pnnwqS2-1" value="" style="rounded=0;whiteSpace=wrap;html=1;" vertex="1" parent="1">
          <mxGeometry x="140" y="91" width="450" height="60" as="geometry" />
        </mxCell>
        <mxCell id="Bw7EAKAciVcx9pnnwqS2-2" value="" style="endArrow=none;html=1;rounded=0;" edge="1" parent="1">
          <mxGeometry width="50" height="50" relative="1" as="geometry">
            <mxPoint x="200" y="151" as="sourcePoint" />
            <mxPoint x="200" y="91" as="targetPoint" />
          </mxGeometry>
        </mxCell>
        <mxCell id="Bw7EAKAciVcx9pnnwqS2-3" value="" style="endArrow=none;html=1;rounded=0;" edge="1" parent="1">
          <mxGeometry width="50" height="50" relative="1" as="geometry">
            <mxPoint x="290" y="151" as="sourcePoint" />
            <mxPoint x="290" y="91" as="targetPoint" />
          </mxGeometry>
        </mxCell>
        <mxCell id="Bw7EAKAciVcx9pnnwqS2-4" value="&lt;font style=&quot;font-size: 34px;&quot; face=&quot;Architects Daughter&quot;&gt;&lt;b&gt;Transaction&lt;/b&gt;&lt;/font&gt;" style="text;html=1;align=center;verticalAlign=middle;resizable=0;points=[];autosize=1;strokeColor=none;fillColor=none;" vertex="1" parent="1">
          <mxGeometry x="129" y="40" width="210" height="50" as="geometry" />
        </mxCell>
        <mxCell id="Bw7EAKAciVcx9pnnwqS2-5" value="&lt;font face=&quot;Architects Daughter&quot; style=&quot;font-size: 17px;&quot;&gt;&lt;b&gt;id&lt;/b&gt;&lt;/font&gt;" style="text;html=1;align=center;verticalAlign=middle;resizable=0;points=[];autosize=1;strokeColor=none;fillColor=none;fontStyle=4" vertex="1" parent="1">
          <mxGeometry x="155" y="106" width="30" height="30" as="geometry" />
        </mxCell>
        <mxCell id="Bw7EAKAciVcx9pnnwqS2-6" value="&lt;font style=&quot;font-size: 17px;&quot; face=&quot;Architects Daughter&quot;&gt;&lt;b&gt;Date&lt;/b&gt;&lt;/font&gt;" style="text;html=1;align=center;verticalAlign=middle;resizable=0;points=[];autosize=1;strokeColor=none;fillColor=none;" vertex="1" parent="1">
          <mxGeometry x="215" y="106" width="60" height="30" as="geometry" />
        </mxCell>
        <mxCell id="Bw7EAKAciVcx9pnnwqS2-8" value="" style="endArrow=none;html=1;rounded=0;" edge="1" parent="1">
          <mxGeometry width="50" height="50" relative="1" as="geometry">
            <mxPoint x="416" y="151" as="sourcePoint" />
            <mxPoint x="416" y="91" as="targetPoint" />
          </mxGeometry>
        </mxCell>
        <mxCell id="Bw7EAKAciVcx9pnnwqS2-10" value="&lt;font face=&quot;Architects Daughter&quot;&gt;&lt;span style=&quot;font-size: 17px;&quot;&gt;&lt;b&gt;Description&lt;/b&gt;&lt;/span&gt;&lt;/font&gt;" style="text;html=1;align=center;verticalAlign=middle;resizable=0;points=[];autosize=1;strokeColor=none;fillColor=none;" vertex="1" parent="1">
          <mxGeometry x="299" y="106" width="110" height="30" as="geometry" />
        </mxCell>
        <mxCell id="Bw7EAKAciVcx9pnnwqS2-11" value="&lt;font style=&quot;font-size: 17px;&quot; face=&quot;Architects Daughter&quot;&gt;&lt;b&gt;Amount&lt;/b&gt;&lt;/font&gt;" style="text;html=1;align=center;verticalAlign=middle;resizable=0;points=[];autosize=1;strokeColor=none;fillColor=none;" vertex="1" parent="1">
          <mxGeometry x="411" y="106" width="80" height="30" as="geometry" />
        </mxCell>
        <mxCell id="Bw7EAKAciVcx9pnnwqS2-111" style="edgeStyle=orthogonalEdgeStyle;rounded=0;orthogonalLoop=1;jettySize=auto;html=1;exitX=0.75;exitY=1;exitDx=0;exitDy=0;entryX=0;entryY=0.5;entryDx=0;entryDy=0;" edge="1" parent="1" source="Bw7EAKAciVcx9pnnwqS2-18" target="Bw7EAKAciVcx9pnnwqS2-96">
          <mxGeometry relative="1" as="geometry">
            <Array as="points">
              <mxPoint x="760" y="301" />
              <mxPoint x="760" y="340" />
              <mxPoint x="840" y="340" />
              <mxPoint x="840" y="30" />
              <mxPoint x="110" y="30" />
              <mxPoint x="110" y="-30" />
            </Array>
          </mxGeometry>
        </mxCell>
        <mxCell id="Bw7EAKAciVcx9pnnwqS2-18" value="" style="rounded=0;whiteSpace=wrap;html=1;" vertex="1" parent="1">
          <mxGeometry x="140" y="241" width="680" height="60" as="geometry" />
        </mxCell>
        <mxCell id="Bw7EAKAciVcx9pnnwqS2-19" value="" style="endArrow=none;html=1;rounded=0;" edge="1" parent="1">
          <mxGeometry width="50" height="50" relative="1" as="geometry">
            <mxPoint x="200" y="301" as="sourcePoint" />
            <mxPoint x="200" y="241" as="targetPoint" />
          </mxGeometry>
        </mxCell>
        <mxCell id="Bw7EAKAciVcx9pnnwqS2-20" value="" style="endArrow=none;html=1;rounded=0;" edge="1" parent="1">
          <mxGeometry width="50" height="50" relative="1" as="geometry">
            <mxPoint x="290" y="301" as="sourcePoint" />
            <mxPoint x="290" y="241" as="targetPoint" />
          </mxGeometry>
        </mxCell>
        <mxCell id="Bw7EAKAciVcx9pnnwqS2-21" value="&lt;font style=&quot;font-size: 34px;&quot; face=&quot;Architects Daughter&quot;&gt;&lt;b&gt;Employee&lt;/b&gt;&lt;/font&gt;" style="text;html=1;align=center;verticalAlign=middle;resizable=0;points=[];autosize=1;strokeColor=none;fillColor=none;" vertex="1" parent="1">
          <mxGeometry x="134" y="185" width="170" height="50" as="geometry" />
        </mxCell>
        <mxCell id="Bw7EAKAciVcx9pnnwqS2-22" value="&lt;font face=&quot;Architects Daughter&quot; style=&quot;font-size: 17px;&quot;&gt;&lt;b&gt;id&lt;/b&gt;&lt;/font&gt;" style="text;html=1;align=center;verticalAlign=middle;resizable=0;points=[];autosize=1;strokeColor=none;fillColor=none;fontStyle=4" vertex="1" parent="1">
          <mxGeometry x="155" y="256" width="30" height="30" as="geometry" />
        </mxCell>
        <mxCell id="Bw7EAKAciVcx9pnnwqS2-23" value="&lt;font style=&quot;font-size: 17px;&quot; face=&quot;Architects Daughter&quot;&gt;&lt;b&gt;Address&lt;/b&gt;&lt;/font&gt;" style="text;html=1;align=center;verticalAlign=middle;resizable=0;points=[];autosize=1;strokeColor=none;fillColor=none;" vertex="1" parent="1">
          <mxGeometry x="200" y="256" width="90" height="30" as="geometry" />
        </mxCell>
        <mxCell id="Bw7EAKAciVcx9pnnwqS2-24" value="" style="endArrow=none;html=1;rounded=0;" edge="1" parent="1">
          <mxGeometry width="50" height="50" relative="1" as="geometry">
            <mxPoint x="370" y="301" as="sourcePoint" />
            <mxPoint x="370" y="241" as="targetPoint" />
          </mxGeometry>
        </mxCell>
        <mxCell id="Bw7EAKAciVcx9pnnwqS2-25" value="" style="endArrow=none;html=1;rounded=0;" edge="1" parent="1">
          <mxGeometry width="50" height="50" relative="1" as="geometry">
            <mxPoint x="440" y="301" as="sourcePoint" />
            <mxPoint x="440" y="241" as="targetPoint" />
          </mxGeometry>
        </mxCell>
        <mxCell id="Bw7EAKAciVcx9pnnwqS2-26" value="&lt;font style=&quot;font-size: 17px;&quot; face=&quot;Architects Daughter&quot;&gt;&lt;b&gt;Gender&lt;/b&gt;&lt;/font&gt;" style="text;html=1;align=center;verticalAlign=middle;resizable=0;points=[];autosize=1;strokeColor=none;fillColor=none;" vertex="1" parent="1">
          <mxGeometry x="290" y="256" width="80" height="30" as="geometry" />
        </mxCell>
        <mxCell id="Bw7EAKAciVcx9pnnwqS2-27" value="&lt;font style=&quot;font-size: 17px;&quot; face=&quot;Architects Daughter&quot;&gt;&lt;b&gt;Name&lt;/b&gt;&lt;/font&gt;" style="text;html=1;align=center;verticalAlign=middle;resizable=0;points=[];autosize=1;strokeColor=none;fillColor=none;" vertex="1" parent="1">
          <mxGeometry x="370" y="256" width="70" height="30" as="geometry" />
        </mxCell>
        <mxCell id="Bw7EAKAciVcx9pnnwqS2-28" value="&lt;font style=&quot;font-size: 17px;&quot; face=&quot;Architects Daughter&quot;&gt;&lt;b&gt;Position&lt;/b&gt;&lt;/font&gt;" style="text;html=1;align=center;verticalAlign=middle;resizable=0;points=[];autosize=1;strokeColor=none;fillColor=none;" vertex="1" parent="1">
          <mxGeometry x="440" y="256" width="80" height="30" as="geometry" />
        </mxCell>
        <mxCell id="Bw7EAKAciVcx9pnnwqS2-29" value="" style="endArrow=none;html=1;rounded=0;" edge="1" parent="1">
          <mxGeometry width="50" height="50" relative="1" as="geometry">
            <mxPoint x="520" y="301" as="sourcePoint" />
            <mxPoint x="520" y="241" as="targetPoint" />
          </mxGeometry>
        </mxCell>
        <mxCell id="Bw7EAKAciVcx9pnnwqS2-47" style="edgeStyle=orthogonalEdgeStyle;rounded=0;orthogonalLoop=1;jettySize=auto;html=1;exitX=0.25;exitY=1;exitDx=0;exitDy=0;entryX=0;entryY=0.5;entryDx=0;entryDy=0;" edge="1" parent="1" source="Bw7EAKAciVcx9pnnwqS2-30" target="Bw7EAKAciVcx9pnnwqS2-18">
          <mxGeometry relative="1" as="geometry">
            <Array as="points">
              <mxPoint x="190" y="466" />
              <mxPoint x="190" y="500" />
              <mxPoint x="120" y="500" />
              <mxPoint x="120" y="271" />
            </Array>
          </mxGeometry>
        </mxCell>
        <mxCell id="Bw7EAKAciVcx9pnnwqS2-30" value="" style="rounded=0;whiteSpace=wrap;html=1;" vertex="1" parent="1">
          <mxGeometry x="140" y="406" width="480" height="60" as="geometry" />
        </mxCell>
        <mxCell id="Bw7EAKAciVcx9pnnwqS2-31" value="" style="endArrow=none;html=1;rounded=0;" edge="1" parent="1">
          <mxGeometry width="50" height="50" relative="1" as="geometry">
            <mxPoint x="260" y="466" as="sourcePoint" />
            <mxPoint x="260" y="406" as="targetPoint" />
          </mxGeometry>
        </mxCell>
        <mxCell id="Bw7EAKAciVcx9pnnwqS2-33" value="&lt;font style=&quot;font-size: 34px;&quot; face=&quot;Architects Daughter&quot;&gt;&lt;b&gt;Emp_Qualifications&lt;/b&gt;&lt;/font&gt;" style="text;html=1;align=center;verticalAlign=middle;resizable=0;points=[];autosize=1;strokeColor=none;fillColor=none;" vertex="1" parent="1">
          <mxGeometry x="138" y="350" width="320" height="50" as="geometry" />
        </mxCell>
        <mxCell id="Bw7EAKAciVcx9pnnwqS2-34" value="&lt;font style=&quot;font-size: 17px;&quot; face=&quot;Architects Daughter&quot;&gt;&lt;b&gt;Emp_id&lt;/b&gt;&lt;/font&gt;" style="text;html=1;align=center;verticalAlign=middle;resizable=0;points=[];autosize=1;strokeColor=none;fillColor=none;fontStyle=0" vertex="1" parent="1">
          <mxGeometry x="155" y="421" width="80" height="30" as="geometry" />
        </mxCell>
        <mxCell id="Bw7EAKAciVcx9pnnwqS2-37" value="" style="endArrow=none;html=1;rounded=0;" edge="1" parent="1">
          <mxGeometry width="50" height="50" relative="1" as="geometry">
            <mxPoint x="412" y="466" as="sourcePoint" />
            <mxPoint x="412" y="406" as="targetPoint" />
          </mxGeometry>
        </mxCell>
        <mxCell id="Bw7EAKAciVcx9pnnwqS2-42" value="&lt;font style=&quot;font-size: 17px;&quot; face=&quot;Architects Daughter&quot;&gt;&lt;b&gt;Qualifications&lt;/b&gt;&lt;/font&gt;" style="text;html=1;align=center;verticalAlign=middle;resizable=0;points=[];autosize=1;strokeColor=none;fillColor=none;" vertex="1" parent="1">
          <mxGeometry x="271" y="421" width="130" height="30" as="geometry" />
        </mxCell>
        <mxCell id="Bw7EAKAciVcx9pnnwqS2-44" value="" style="endArrow=none;dashed=1;html=1;dashPattern=1 3;strokeWidth=2;rounded=0;" edge="1" parent="1">
          <mxGeometry width="50" height="50" relative="1" as="geometry">
            <mxPoint x="170" y="449" as="sourcePoint" />
            <mxPoint x="220" y="449" as="targetPoint" />
          </mxGeometry>
        </mxCell>
        <mxCell id="Bw7EAKAciVcx9pnnwqS2-45" value="" style="endArrow=none;html=1;rounded=0;entryX=0.96;entryY=1.119;entryDx=0;entryDy=0;entryPerimeter=0;" edge="1" parent="1">
          <mxGeometry width="50" height="50" relative="1" as="geometry">
            <mxPoint x="165" y="456" as="sourcePoint" />
            <mxPoint x="391.79999999999995" y="455.56999999999994" as="targetPoint" />
          </mxGeometry>
        </mxCell>
        <mxCell id="Bw7EAKAciVcx9pnnwqS2-52" value="&lt;font style=&quot;font-size: 17px;&quot; face=&quot;Architects Daughter&quot;&gt;&lt;b&gt;Year&lt;/b&gt;&lt;/font&gt;" style="text;html=1;align=center;verticalAlign=middle;resizable=0;points=[];autosize=1;strokeColor=none;fillColor=none;" vertex="1" parent="1">
          <mxGeometry x="524" y="256" width="60" height="30" as="geometry" />
        </mxCell>
        <mxCell id="Bw7EAKAciVcx9pnnwqS2-53" value="" style="endArrow=none;html=1;rounded=0;" edge="1" parent="1">
          <mxGeometry width="50" height="50" relative="1" as="geometry">
            <mxPoint x="586" y="301" as="sourcePoint" />
            <mxPoint x="586" y="241" as="targetPoint" />
          </mxGeometry>
        </mxCell>
        <mxCell id="Bw7EAKAciVcx9pnnwqS2-54" value="&lt;font style=&quot;font-size: 17px;&quot; face=&quot;Architects Daughter&quot;&gt;&lt;b&gt;Month&lt;/b&gt;&lt;/font&gt;" style="text;html=1;align=center;verticalAlign=middle;resizable=0;points=[];autosize=1;strokeColor=none;fillColor=none;" vertex="1" parent="1">
          <mxGeometry x="587" y="256" width="70" height="30" as="geometry" />
        </mxCell>
        <mxCell id="Bw7EAKAciVcx9pnnwqS2-55" value="" style="endArrow=none;html=1;rounded=0;" edge="1" parent="1">
          <mxGeometry width="50" height="50" relative="1" as="geometry">
            <mxPoint x="653" y="301" as="sourcePoint" />
            <mxPoint x="653" y="241" as="targetPoint" />
          </mxGeometry>
        </mxCell>
        <mxCell id="Bw7EAKAciVcx9pnnwqS2-56" value="&lt;font face=&quot;Architects Daughter&quot;&gt;&lt;span style=&quot;font-size: 17px;&quot;&gt;&lt;b&gt;Day&lt;/b&gt;&lt;/span&gt;&lt;/font&gt;" style="text;html=1;align=center;verticalAlign=middle;resizable=0;points=[];autosize=1;strokeColor=none;fillColor=none;" vertex="1" parent="1">
          <mxGeometry x="653" y="256" width="50" height="30" as="geometry" />
        </mxCell>
        <mxCell id="Bw7EAKAciVcx9pnnwqS2-124" style="edgeStyle=orthogonalEdgeStyle;rounded=0;orthogonalLoop=1;jettySize=auto;html=1;exitX=0.75;exitY=1;exitDx=0;exitDy=0;entryX=0;entryY=0.25;entryDx=0;entryDy=0;" edge="1" parent="1" source="Bw7EAKAciVcx9pnnwqS2-59" target="Bw7EAKAciVcx9pnnwqS2-96">
          <mxGeometry relative="1" as="geometry">
            <Array as="points">
              <mxPoint x="430" y="651" />
              <mxPoint x="430" y="671" />
              <mxPoint x="70" y="671" />
              <mxPoint x="70" y="-45" />
            </Array>
          </mxGeometry>
        </mxCell>
        <mxCell id="Bw7EAKAciVcx9pnnwqS2-59" value="" style="rounded=0;whiteSpace=wrap;html=1;" vertex="1" parent="1">
          <mxGeometry x="140" y="591" width="850" height="60" as="geometry" />
        </mxCell>
        <mxCell id="Bw7EAKAciVcx9pnnwqS2-60" value="" style="endArrow=none;html=1;rounded=0;" edge="1" parent="1">
          <mxGeometry width="50" height="50" relative="1" as="geometry">
            <mxPoint x="200" y="651" as="sourcePoint" />
            <mxPoint x="200" y="591" as="targetPoint" />
          </mxGeometry>
        </mxCell>
        <mxCell id="Bw7EAKAciVcx9pnnwqS2-61" value="" style="endArrow=none;html=1;rounded=0;" edge="1" parent="1">
          <mxGeometry width="50" height="50" relative="1" as="geometry">
            <mxPoint x="290" y="651" as="sourcePoint" />
            <mxPoint x="290" y="591" as="targetPoint" />
          </mxGeometry>
        </mxCell>
        <mxCell id="Bw7EAKAciVcx9pnnwqS2-62" value="&lt;font style=&quot;font-size: 34px;&quot; face=&quot;Architects Daughter&quot;&gt;&lt;b&gt;Aircraft&lt;/b&gt;&lt;/font&gt;" style="text;html=1;align=center;verticalAlign=middle;resizable=0;points=[];autosize=1;strokeColor=none;fillColor=none;" vertex="1" parent="1">
          <mxGeometry x="130" y="540" width="160" height="50" as="geometry" />
        </mxCell>
        <mxCell id="Bw7EAKAciVcx9pnnwqS2-63" value="&lt;font face=&quot;Architects Daughter&quot; style=&quot;font-size: 17px;&quot;&gt;&lt;b&gt;id&lt;/b&gt;&lt;/font&gt;" style="text;html=1;align=center;verticalAlign=middle;resizable=0;points=[];autosize=1;strokeColor=none;fillColor=none;fontStyle=4" vertex="1" parent="1">
          <mxGeometry x="155" y="606" width="30" height="30" as="geometry" />
        </mxCell>
        <mxCell id="Bw7EAKAciVcx9pnnwqS2-64" value="&lt;font style=&quot;font-size: 17px;&quot; face=&quot;Architects Daughter&quot;&gt;&lt;b&gt;Model&lt;/b&gt;&lt;/font&gt;" style="text;html=1;align=center;verticalAlign=middle;resizable=0;points=[];autosize=1;strokeColor=none;fillColor=none;" vertex="1" parent="1">
          <mxGeometry x="210" y="606" width="70" height="30" as="geometry" />
        </mxCell>
        <mxCell id="Bw7EAKAciVcx9pnnwqS2-67" value="&lt;font style=&quot;font-size: 17px;&quot; face=&quot;Architects Daughter&quot;&gt;&lt;b&gt;Capacity&lt;/b&gt;&lt;/font&gt;" style="text;html=1;align=center;verticalAlign=middle;resizable=0;points=[];autosize=1;strokeColor=none;fillColor=none;" vertex="1" parent="1">
          <mxGeometry x="290" y="606" width="90" height="30" as="geometry" />
        </mxCell>
        <mxCell id="Bw7EAKAciVcx9pnnwqS2-70" value="" style="rounded=0;whiteSpace=wrap;html=1;" vertex="1" parent="1">
          <mxGeometry x="140" y="941" width="480" height="60" as="geometry" />
        </mxCell>
        <mxCell id="Bw7EAKAciVcx9pnnwqS2-71" value="" style="endArrow=none;html=1;rounded=0;" edge="1" parent="1">
          <mxGeometry width="50" height="50" relative="1" as="geometry">
            <mxPoint x="200" y="1001" as="sourcePoint" />
            <mxPoint x="200" y="941" as="targetPoint" />
          </mxGeometry>
        </mxCell>
        <mxCell id="Bw7EAKAciVcx9pnnwqS2-72" value="" style="endArrow=none;html=1;rounded=0;" edge="1" parent="1">
          <mxGeometry width="50" height="50" relative="1" as="geometry">
            <mxPoint x="290" y="1001" as="sourcePoint" />
            <mxPoint x="290" y="941" as="targetPoint" />
          </mxGeometry>
        </mxCell>
        <mxCell id="Bw7EAKAciVcx9pnnwqS2-73" value="&lt;font style=&quot;font-size: 34px;&quot; face=&quot;Architects Daughter&quot;&gt;&lt;b&gt;Route&lt;/b&gt;&lt;/font&gt;" style="text;html=1;align=center;verticalAlign=middle;resizable=0;points=[];autosize=1;strokeColor=none;fillColor=none;" vertex="1" parent="1">
          <mxGeometry x="131" y="890" width="120" height="50" as="geometry" />
        </mxCell>
        <mxCell id="Bw7EAKAciVcx9pnnwqS2-74" value="&lt;font face=&quot;Architects Daughter&quot; style=&quot;font-size: 17px;&quot;&gt;&lt;b&gt;id&lt;/b&gt;&lt;/font&gt;" style="text;html=1;align=center;verticalAlign=middle;resizable=0;points=[];autosize=1;strokeColor=none;fillColor=none;fontStyle=4" vertex="1" parent="1">
          <mxGeometry x="155" y="956" width="30" height="30" as="geometry" />
        </mxCell>
        <mxCell id="Bw7EAKAciVcx9pnnwqS2-75" value="&lt;font style=&quot;font-size: 17px;&quot; face=&quot;Architects Daughter&quot;&gt;&lt;b&gt;Origin&lt;/b&gt;&lt;/font&gt;" style="text;html=1;align=center;verticalAlign=middle;resizable=0;points=[];autosize=1;strokeColor=none;fillColor=none;" vertex="1" parent="1">
          <mxGeometry x="210" y="956" width="70" height="30" as="geometry" />
        </mxCell>
        <mxCell id="Bw7EAKAciVcx9pnnwqS2-76" value="" style="endArrow=none;html=1;rounded=0;" edge="1" parent="1">
          <mxGeometry width="50" height="50" relative="1" as="geometry">
            <mxPoint x="401" y="1001" as="sourcePoint" />
            <mxPoint x="401" y="941" as="targetPoint" />
          </mxGeometry>
        </mxCell>
        <mxCell id="Bw7EAKAciVcx9pnnwqS2-77" value="" style="endArrow=none;html=1;rounded=0;" edge="1" parent="1">
          <mxGeometry width="50" height="50" relative="1" as="geometry">
            <mxPoint x="487" y="1001" as="sourcePoint" />
            <mxPoint x="487" y="941" as="targetPoint" />
          </mxGeometry>
        </mxCell>
        <mxCell id="Bw7EAKAciVcx9pnnwqS2-78" value="&lt;font style=&quot;font-size: 17px;&quot; face=&quot;Architects Daughter&quot;&gt;&lt;b&gt;Destination&lt;/b&gt;&lt;/font&gt;" style="text;html=1;align=center;verticalAlign=middle;resizable=0;points=[];autosize=1;strokeColor=none;fillColor=none;" vertex="1" parent="1">
          <mxGeometry x="290" y="956" width="110" height="30" as="geometry" />
        </mxCell>
        <mxCell id="Bw7EAKAciVcx9pnnwqS2-79" value="&lt;font style=&quot;font-size: 17px;&quot; face=&quot;Architects Daughter&quot;&gt;&lt;b&gt;Distance&lt;/b&gt;&lt;/font&gt;" style="text;html=1;align=center;verticalAlign=middle;resizable=0;points=[];autosize=1;strokeColor=none;fillColor=none;" vertex="1" parent="1">
          <mxGeometry x="400" y="956" width="90" height="30" as="geometry" />
        </mxCell>
        <mxCell id="Bw7EAKAciVcx9pnnwqS2-80" value="&lt;font style=&quot;font-size: 17px;&quot; face=&quot;Architects Daughter&quot;&gt;&lt;b&gt;Classification&lt;/b&gt;&lt;/font&gt;" style="text;html=1;align=center;verticalAlign=middle;resizable=0;points=[];autosize=1;strokeColor=none;fillColor=none;" vertex="1" parent="1">
          <mxGeometry x="489" y="956" width="130" height="30" as="geometry" />
        </mxCell>
        <mxCell id="Bw7EAKAciVcx9pnnwqS2-95" style="edgeStyle=orthogonalEdgeStyle;rounded=0;orthogonalLoop=1;jettySize=auto;html=1;exitX=0.25;exitY=1;exitDx=0;exitDy=0;entryX=0;entryY=0.5;entryDx=0;entryDy=0;" edge="1" parent="1" source="Bw7EAKAciVcx9pnnwqS2-81" target="Bw7EAKAciVcx9pnnwqS2-59">
          <mxGeometry relative="1" as="geometry">
            <Array as="points">
              <mxPoint x="210" y="811" />
              <mxPoint x="210" y="831" />
              <mxPoint x="120" y="831" />
              <mxPoint x="120" y="621" />
            </Array>
          </mxGeometry>
        </mxCell>
        <mxCell id="Bw7EAKAciVcx9pnnwqS2-81" value="" style="rounded=0;whiteSpace=wrap;html=1;" vertex="1" parent="1">
          <mxGeometry x="140" y="751" width="530" height="60" as="geometry" />
        </mxCell>
        <mxCell id="Bw7EAKAciVcx9pnnwqS2-82" value="" style="endArrow=none;html=1;rounded=0;" edge="1" parent="1">
          <mxGeometry width="50" height="50" relative="1" as="geometry">
            <mxPoint x="280" y="811" as="sourcePoint" />
            <mxPoint x="280" y="751" as="targetPoint" />
          </mxGeometry>
        </mxCell>
        <mxCell id="Bw7EAKAciVcx9pnnwqS2-83" value="" style="endArrow=none;html=1;rounded=0;" edge="1" parent="1">
          <mxGeometry width="50" height="50" relative="1" as="geometry">
            <mxPoint x="370" y="811" as="sourcePoint" />
            <mxPoint x="370" y="751" as="targetPoint" />
          </mxGeometry>
        </mxCell>
        <mxCell id="Bw7EAKAciVcx9pnnwqS2-84" value="&lt;font style=&quot;font-size: 34px;&quot; face=&quot;Architects Daughter&quot;&gt;&lt;b&gt;Crew&lt;/b&gt;&lt;/font&gt;" style="text;html=1;align=center;verticalAlign=middle;resizable=0;points=[];autosize=1;strokeColor=none;fillColor=none;" vertex="1" parent="1">
          <mxGeometry x="136" y="700" width="110" height="50" as="geometry" />
        </mxCell>
        <mxCell id="Bw7EAKAciVcx9pnnwqS2-85" value="&lt;font style=&quot;font-size: 17px;&quot; face=&quot;Architects Daughter&quot;&gt;&lt;b&gt;Aircraft_id&lt;/b&gt;&lt;/font&gt;" style="text;html=1;align=center;verticalAlign=middle;resizable=0;points=[];autosize=1;strokeColor=none;fillColor=none;fontStyle=0" vertex="1" parent="1">
          <mxGeometry x="150" y="766" width="120" height="30" as="geometry" />
        </mxCell>
        <mxCell id="Bw7EAKAciVcx9pnnwqS2-86" value="&lt;font style=&quot;font-size: 17px;&quot; face=&quot;Architects Daughter&quot;&gt;&lt;b&gt;Maj_pilot&lt;/b&gt;&lt;/font&gt;" style="text;html=1;align=center;verticalAlign=middle;resizable=0;points=[];autosize=1;strokeColor=none;fillColor=none;" vertex="1" parent="1">
          <mxGeometry x="280" y="766" width="90" height="30" as="geometry" />
        </mxCell>
        <mxCell id="Bw7EAKAciVcx9pnnwqS2-87" value="" style="endArrow=none;html=1;rounded=0;" edge="1" parent="1">
          <mxGeometry width="50" height="50" relative="1" as="geometry">
            <mxPoint x="481" y="811" as="sourcePoint" />
            <mxPoint x="481" y="751" as="targetPoint" />
          </mxGeometry>
        </mxCell>
        <mxCell id="Bw7EAKAciVcx9pnnwqS2-88" value="" style="endArrow=none;html=1;rounded=0;" edge="1" parent="1">
          <mxGeometry width="50" height="50" relative="1" as="geometry">
            <mxPoint x="567" y="811" as="sourcePoint" />
            <mxPoint x="567" y="751" as="targetPoint" />
          </mxGeometry>
        </mxCell>
        <mxCell id="Bw7EAKAciVcx9pnnwqS2-89" value="&lt;font style=&quot;font-size: 17px;&quot; face=&quot;Architects Daughter&quot;&gt;&lt;b&gt;Assis_pilot&lt;/b&gt;&lt;/font&gt;" style="text;html=1;align=center;verticalAlign=middle;resizable=0;points=[];autosize=1;strokeColor=none;fillColor=none;" vertex="1" parent="1">
          <mxGeometry x="370" y="766" width="110" height="30" as="geometry" />
        </mxCell>
        <mxCell id="Bw7EAKAciVcx9pnnwqS2-90" value="&lt;font style=&quot;font-size: 17px;&quot; face=&quot;Architects Daughter&quot;&gt;&lt;b&gt;Host1&lt;/b&gt;&lt;/font&gt;" style="text;html=1;align=center;verticalAlign=middle;resizable=0;points=[];autosize=1;strokeColor=none;fillColor=none;" vertex="1" parent="1">
          <mxGeometry x="495" y="766" width="60" height="30" as="geometry" />
        </mxCell>
        <mxCell id="Bw7EAKAciVcx9pnnwqS2-91" value="&lt;font style=&quot;font-size: 17px;&quot; face=&quot;Architects Daughter&quot;&gt;&lt;b&gt;Host2&lt;/b&gt;&lt;/font&gt;" style="text;html=1;align=center;verticalAlign=middle;resizable=0;points=[];autosize=1;strokeColor=none;fillColor=none;" vertex="1" parent="1">
          <mxGeometry x="586" y="767" width="70" height="30" as="geometry" />
        </mxCell>
        <mxCell id="Bw7EAKAciVcx9pnnwqS2-94" value="" style="endArrow=none;dashed=1;html=1;dashPattern=1 3;strokeWidth=2;rounded=0;entryX=0.935;entryY=0.951;entryDx=0;entryDy=0;entryPerimeter=0;" edge="1" parent="1">
          <mxGeometry width="50" height="50" relative="1" as="geometry">
            <mxPoint x="164" y="794" as="sourcePoint" />
            <mxPoint x="261.19999999999993" y="794.53" as="targetPoint" />
          </mxGeometry>
        </mxCell>
        <mxCell id="Bw7EAKAciVcx9pnnwqS2-96" value="" style="rounded=0;whiteSpace=wrap;html=1;" vertex="1" parent="1">
          <mxGeometry x="140" y="-60" width="480" height="60" as="geometry" />
        </mxCell>
        <mxCell id="Bw7EAKAciVcx9pnnwqS2-97" value="" style="endArrow=none;html=1;rounded=0;" edge="1" parent="1">
          <mxGeometry width="50" height="50" relative="1" as="geometry">
            <mxPoint x="200" as="sourcePoint" />
            <mxPoint x="200" y="-60" as="targetPoint" />
          </mxGeometry>
        </mxCell>
        <mxCell id="Bw7EAKAciVcx9pnnwqS2-98" value="" style="endArrow=none;html=1;rounded=0;" edge="1" parent="1">
          <mxGeometry width="50" height="50" relative="1" as="geometry">
            <mxPoint x="290" as="sourcePoint" />
            <mxPoint x="290" y="-60" as="targetPoint" />
          </mxGeometry>
        </mxCell>
        <mxCell id="Bw7EAKAciVcx9pnnwqS2-99" value="&lt;font style=&quot;font-size: 34px;&quot; face=&quot;Architects Daughter&quot;&gt;&lt;b&gt;Airline&lt;/b&gt;&lt;/font&gt;" style="text;html=1;align=center;verticalAlign=middle;resizable=0;points=[];autosize=1;strokeColor=none;fillColor=none;" vertex="1" parent="1">
          <mxGeometry x="131" y="-111" width="120" height="50" as="geometry" />
        </mxCell>
        <mxCell id="Bw7EAKAciVcx9pnnwqS2-100" value="&lt;font face=&quot;Architects Daughter&quot; style=&quot;font-size: 17px;&quot;&gt;&lt;b&gt;id&lt;/b&gt;&lt;/font&gt;" style="text;html=1;align=center;verticalAlign=middle;resizable=0;points=[];autosize=1;strokeColor=none;fillColor=none;fontStyle=4" vertex="1" parent="1">
          <mxGeometry x="155" y="-45" width="30" height="30" as="geometry" />
        </mxCell>
        <mxCell id="Bw7EAKAciVcx9pnnwqS2-101" value="&lt;font style=&quot;font-size: 17px;&quot; face=&quot;Architects Daughter&quot;&gt;&lt;b&gt;Address&lt;/b&gt;&lt;/font&gt;" style="text;html=1;align=center;verticalAlign=middle;resizable=0;points=[];autosize=1;strokeColor=none;fillColor=none;" vertex="1" parent="1">
          <mxGeometry x="200" y="-45" width="90" height="30" as="geometry" />
        </mxCell>
        <mxCell id="Bw7EAKAciVcx9pnnwqS2-102" value="" style="endArrow=none;html=1;rounded=0;" edge="1" parent="1">
          <mxGeometry width="50" height="50" relative="1" as="geometry">
            <mxPoint x="460" as="sourcePoint" />
            <mxPoint x="460" y="-60" as="targetPoint" />
          </mxGeometry>
        </mxCell>
        <mxCell id="Bw7EAKAciVcx9pnnwqS2-103" value="" style="endArrow=none;html=1;rounded=0;" edge="1" parent="1">
          <mxGeometry width="50" height="50" relative="1" as="geometry">
            <mxPoint x="540" as="sourcePoint" />
            <mxPoint x="540" y="-60" as="targetPoint" />
          </mxGeometry>
        </mxCell>
        <mxCell id="Bw7EAKAciVcx9pnnwqS2-104" value="&lt;font style=&quot;font-size: 17px;&quot; face=&quot;Architects Daughter&quot;&gt;&lt;b&gt;Contact-Person&lt;/b&gt;&lt;/font&gt;" style="text;html=1;align=center;verticalAlign=middle;resizable=0;points=[];autosize=1;strokeColor=none;fillColor=none;" vertex="1" parent="1">
          <mxGeometry x="300" y="-45" width="150" height="30" as="geometry" />
        </mxCell>
        <mxCell id="Bw7EAKAciVcx9pnnwqS2-105" value="&lt;font style=&quot;font-size: 17px;&quot; face=&quot;Architects Daughter&quot;&gt;&lt;b&gt;Name&lt;/b&gt;&lt;/font&gt;" style="text;html=1;align=center;verticalAlign=middle;resizable=0;points=[];autosize=1;strokeColor=none;fillColor=none;" vertex="1" parent="1">
          <mxGeometry x="465" y="-45" width="70" height="30" as="geometry" />
        </mxCell>
        <mxCell id="Bw7EAKAciVcx9pnnwqS2-106" value="&lt;font style=&quot;font-size: 17px;&quot; face=&quot;Architects Daughter&quot;&gt;&lt;b&gt;Phones&lt;/b&gt;&lt;/font&gt;" style="text;html=1;align=center;verticalAlign=middle;resizable=0;points=[];autosize=1;strokeColor=none;fillColor=none;" vertex="1" parent="1">
          <mxGeometry x="540" y="-45" width="80" height="30" as="geometry" />
        </mxCell>
        <mxCell id="Bw7EAKAciVcx9pnnwqS2-107" value="&lt;font face=&quot;Architects Daughter&quot;&gt;&lt;span style=&quot;font-size: 17px;&quot;&gt;&lt;b&gt;Airline_Id&lt;/b&gt;&lt;/span&gt;&lt;/font&gt;" style="text;html=1;align=center;verticalAlign=middle;resizable=0;points=[];autosize=1;strokeColor=none;fillColor=none;" vertex="1" parent="1">
          <mxGeometry x="716" y="256" width="90" height="30" as="geometry" />
        </mxCell>
        <mxCell id="Bw7EAKAciVcx9pnnwqS2-108" value="" style="endArrow=none;html=1;rounded=0;" edge="1" parent="1">
          <mxGeometry width="50" height="50" relative="1" as="geometry">
            <mxPoint x="710" y="301" as="sourcePoint" />
            <mxPoint x="710" y="241" as="targetPoint" />
          </mxGeometry>
        </mxCell>
        <mxCell id="Bw7EAKAciVcx9pnnwqS2-110" value="" style="endArrow=none;dashed=1;html=1;dashPattern=1 3;strokeWidth=2;rounded=0;entryX=0.912;entryY=1.013;entryDx=0;entryDy=0;entryPerimeter=0;" edge="1" parent="1" target="Bw7EAKAciVcx9pnnwqS2-107">
          <mxGeometry width="50" height="50" relative="1" as="geometry">
            <mxPoint x="730" y="286" as="sourcePoint" />
            <mxPoint x="780" y="286" as="targetPoint" />
          </mxGeometry>
        </mxCell>
        <mxCell id="Bw7EAKAciVcx9pnnwqS2-112" value="" style="endArrow=none;dashed=1;html=1;dashPattern=1 3;strokeWidth=2;rounded=0;entryX=0.912;entryY=1.013;entryDx=0;entryDy=0;entryPerimeter=0;" edge="1" target="Bw7EAKAciVcx9pnnwqS2-113" parent="1">
          <mxGeometry width="50" height="50" relative="1" as="geometry">
            <mxPoint x="508" y="136" as="sourcePoint" />
            <mxPoint x="558" y="136" as="targetPoint" />
          </mxGeometry>
        </mxCell>
        <mxCell id="Bw7EAKAciVcx9pnnwqS2-113" value="&lt;font face=&quot;Architects Daughter&quot;&gt;&lt;span style=&quot;font-size: 17px;&quot;&gt;&lt;b&gt;Airline_Id&lt;/b&gt;&lt;/span&gt;&lt;/font&gt;" style="text;html=1;align=center;verticalAlign=middle;resizable=0;points=[];autosize=1;strokeColor=none;fillColor=none;" vertex="1" parent="1">
          <mxGeometry x="494" y="106" width="90" height="30" as="geometry" />
        </mxCell>
        <mxCell id="Bw7EAKAciVcx9pnnwqS2-114" value="" style="endArrow=none;html=1;rounded=0;" edge="1" parent="1">
          <mxGeometry width="50" height="50" relative="1" as="geometry">
            <mxPoint x="495" y="151" as="sourcePoint" />
            <mxPoint x="495" y="91" as="targetPoint" />
          </mxGeometry>
        </mxCell>
        <mxCell id="Bw7EAKAciVcx9pnnwqS2-120" value="" style="endArrow=none;html=1;rounded=0;" edge="1" parent="1">
          <mxGeometry width="50" height="50" relative="1" as="geometry">
            <mxPoint x="378" y="651" as="sourcePoint" />
            <mxPoint x="378" y="591" as="targetPoint" />
          </mxGeometry>
        </mxCell>
        <mxCell id="Bw7EAKAciVcx9pnnwqS2-122" value="&lt;font face=&quot;Architects Daughter&quot;&gt;&lt;span style=&quot;font-size: 17px;&quot;&gt;&lt;b&gt;Airline_Id&lt;/b&gt;&lt;/span&gt;&lt;/font&gt;" style="text;html=1;align=center;verticalAlign=middle;resizable=0;points=[];autosize=1;strokeColor=none;fillColor=none;" vertex="1" parent="1">
          <mxGeometry x="379" y="606" width="90" height="30" as="geometry" />
        </mxCell>
        <mxCell id="Bw7EAKAciVcx9pnnwqS2-123" value="" style="endArrow=none;dashed=1;html=1;dashPattern=1 3;strokeWidth=2;rounded=0;entryX=0.912;entryY=1.013;entryDx=0;entryDy=0;entryPerimeter=0;" edge="1" target="Bw7EAKAciVcx9pnnwqS2-122" parent="1">
          <mxGeometry width="50" height="50" relative="1" as="geometry">
            <mxPoint x="393" y="636" as="sourcePoint" />
            <mxPoint x="443" y="636" as="targetPoint" />
          </mxGeometry>
        </mxCell>
        <mxCell id="Bw7EAKAciVcx9pnnwqS2-138" style="edgeStyle=orthogonalEdgeStyle;rounded=0;orthogonalLoop=1;jettySize=auto;html=1;exitX=0.25;exitY=1;exitDx=0;exitDy=0;entryX=0;entryY=0.25;entryDx=0;entryDy=0;" edge="1" parent="1" source="Bw7EAKAciVcx9pnnwqS2-125" target="Bw7EAKAciVcx9pnnwqS2-59">
          <mxGeometry relative="1" as="geometry">
            <Array as="points">
              <mxPoint x="190" y="1181" />
              <mxPoint x="40" y="1181" />
              <mxPoint x="40" y="606" />
            </Array>
          </mxGeometry>
        </mxCell>
        <mxCell id="Bw7EAKAciVcx9pnnwqS2-139" style="edgeStyle=orthogonalEdgeStyle;rounded=0;orthogonalLoop=1;jettySize=auto;html=1;exitX=0.75;exitY=1;exitDx=0;exitDy=0;entryX=0;entryY=0.5;entryDx=0;entryDy=0;" edge="1" parent="1" source="Bw7EAKAciVcx9pnnwqS2-125" target="Bw7EAKAciVcx9pnnwqS2-70">
          <mxGeometry relative="1" as="geometry">
            <Array as="points">
              <mxPoint x="290" y="1220" />
              <mxPoint x="80" y="1220" />
              <mxPoint x="80" y="971" />
            </Array>
          </mxGeometry>
        </mxCell>
        <mxCell id="Bw7EAKAciVcx9pnnwqS2-125" value="" style="rounded=0;whiteSpace=wrap;html=1;" vertex="1" parent="1">
          <mxGeometry x="140" y="1101" width="200" height="60" as="geometry" />
        </mxCell>
        <mxCell id="Bw7EAKAciVcx9pnnwqS2-126" value="" style="endArrow=none;html=1;rounded=0;" edge="1" parent="1">
          <mxGeometry width="50" height="50" relative="1" as="geometry">
            <mxPoint x="250.05" y="1161" as="sourcePoint" />
            <mxPoint x="250.05" y="1101" as="targetPoint" />
          </mxGeometry>
        </mxCell>
        <mxCell id="Bw7EAKAciVcx9pnnwqS2-128" value="&lt;font style=&quot;font-size: 34px;&quot; face=&quot;Architects Daughter&quot;&gt;&lt;b&gt;Aircraft_Route&lt;/b&gt;&lt;/font&gt;" style="text;html=1;align=center;verticalAlign=middle;resizable=0;points=[];autosize=1;strokeColor=none;fillColor=none;" vertex="1" parent="1">
          <mxGeometry x="131" y="1050" width="280" height="50" as="geometry" />
        </mxCell>
        <mxCell id="Bw7EAKAciVcx9pnnwqS2-129" value="&lt;font style=&quot;font-size: 17px;&quot; face=&quot;Architects Daughter&quot;&gt;&lt;b&gt;Aircraft_id&lt;/b&gt;&lt;/font&gt;" style="text;html=1;align=center;verticalAlign=middle;resizable=0;points=[];autosize=1;strokeColor=none;fillColor=none;fontStyle=0" vertex="1" parent="1">
          <mxGeometry x="131" y="1116" width="120" height="30" as="geometry" />
        </mxCell>
        <mxCell id="Bw7EAKAciVcx9pnnwqS2-130" value="&lt;font style=&quot;font-size: 17px;&quot; face=&quot;Architects Daughter&quot;&gt;&lt;b&gt;Route_id&lt;/b&gt;&lt;/font&gt;" style="text;html=1;align=center;verticalAlign=middle;resizable=0;points=[];autosize=1;strokeColor=none;fillColor=none;" vertex="1" parent="1">
          <mxGeometry x="251" y="1116" width="90" height="30" as="geometry" />
        </mxCell>
        <mxCell id="Bw7EAKAciVcx9pnnwqS2-136" value="" style="endArrow=none;html=1;rounded=0;entryX=0.915;entryY=0.943;entryDx=0;entryDy=0;entryPerimeter=0;" edge="1" parent="1" target="Bw7EAKAciVcx9pnnwqS2-130">
          <mxGeometry width="50" height="50" relative="1" as="geometry">
            <mxPoint x="150" y="1145.05" as="sourcePoint" />
            <mxPoint x="220" y="1145.05" as="targetPoint" />
          </mxGeometry>
        </mxCell>
        <mxCell id="Bw7EAKAciVcx9pnnwqS2-137" value="" style="endArrow=none;dashed=1;html=1;dashPattern=1 3;strokeWidth=2;rounded=0;" edge="1" parent="1">
          <mxGeometry width="50" height="50" relative="1" as="geometry">
            <mxPoint x="150" y="1152" as="sourcePoint" />
            <mxPoint x="333" y="1152" as="targetPoint" />
          </mxGeometry>
        </mxCell>
        <mxCell id="Bw7EAKAciVcx9pnnwqS2-140" value="&lt;font style=&quot;font-size: 17px;&quot; face=&quot;Architects Daughter&quot;&gt;&lt;b&gt;Num_of_passengers&lt;/b&gt;&lt;/font&gt;" style="text;html=1;align=center;verticalAlign=middle;resizable=0;points=[];autosize=1;strokeColor=none;fillColor=none;" vertex="1" parent="1">
          <mxGeometry x="480" y="606" width="190" height="30" as="geometry" />
        </mxCell>
        <mxCell id="Bw7EAKAciVcx9pnnwqS2-141" value="" style="endArrow=none;html=1;rounded=0;" edge="1" parent="1">
          <mxGeometry width="50" height="50" relative="1" as="geometry">
            <mxPoint x="477" y="650" as="sourcePoint" />
            <mxPoint x="477" y="590" as="targetPoint" />
          </mxGeometry>
        </mxCell>
        <mxCell id="Bw7EAKAciVcx9pnnwqS2-142" value="" style="endArrow=none;html=1;rounded=0;" edge="1" parent="1">
          <mxGeometry width="50" height="50" relative="1" as="geometry">
            <mxPoint x="670" y="650" as="sourcePoint" />
            <mxPoint x="670" y="590" as="targetPoint" />
          </mxGeometry>
        </mxCell>
        <mxCell id="Bw7EAKAciVcx9pnnwqS2-143" value="&lt;font style=&quot;font-size: 17px;&quot; face=&quot;Architects Daughter&quot;&gt;&lt;b&gt;Price&lt;/b&gt;&lt;/font&gt;" style="text;html=1;align=center;verticalAlign=middle;resizable=0;points=[];autosize=1;strokeColor=none;fillColor=none;" vertex="1" parent="1">
          <mxGeometry x="667" y="606" width="70" height="30" as="geometry" />
        </mxCell>
        <mxCell id="Bw7EAKAciVcx9pnnwqS2-148" value="" style="endArrow=none;html=1;rounded=0;" edge="1" parent="1">
          <mxGeometry width="50" height="50" relative="1" as="geometry">
            <mxPoint x="735" y="650" as="sourcePoint" />
            <mxPoint x="735" y="590" as="targetPoint" />
          </mxGeometry>
        </mxCell>
        <mxCell id="Bw7EAKAciVcx9pnnwqS2-149" value="&lt;font style=&quot;font-size: 17px;&quot; face=&quot;Architects Daughter&quot;&gt;&lt;b&gt;Departure&lt;/b&gt;&lt;/font&gt;" style="text;html=1;align=center;verticalAlign=middle;resizable=0;points=[];autosize=1;strokeColor=none;fillColor=none;" vertex="1" parent="1">
          <mxGeometry x="730" y="606" width="110" height="30" as="geometry" />
        </mxCell>
        <mxCell id="Bw7EAKAciVcx9pnnwqS2-152" value="&lt;font style=&quot;font-size: 17px;&quot; face=&quot;Architects Daughter&quot;&gt;&lt;b&gt;Arrival&lt;/b&gt;&lt;/font&gt;" style="text;html=1;align=center;verticalAlign=middle;resizable=0;points=[];autosize=1;strokeColor=none;fillColor=none;" vertex="1" parent="1">
          <mxGeometry x="829" y="606" width="80" height="30" as="geometry" />
        </mxCell>
        <mxCell id="Bw7EAKAciVcx9pnnwqS2-153" value="" style="endArrow=none;html=1;rounded=0;" edge="1" parent="1">
          <mxGeometry width="50" height="50" relative="1" as="geometry">
            <mxPoint x="837" y="650" as="sourcePoint" />
            <mxPoint x="837" y="590" as="targetPoint" />
          </mxGeometry>
        </mxCell>
        <mxCell id="Bw7EAKAciVcx9pnnwqS2-154" value="" style="endArrow=none;html=1;rounded=0;" edge="1" parent="1">
          <mxGeometry width="50" height="50" relative="1" as="geometry">
            <mxPoint x="900" y="650" as="sourcePoint" />
            <mxPoint x="900" y="590" as="targetPoint" />
          </mxGeometry>
        </mxCell>
        <mxCell id="Bw7EAKAciVcx9pnnwqS2-155" value="&lt;font style=&quot;font-size: 17px;&quot; face=&quot;Architects Daughter&quot;&gt;&lt;b&gt;Duration&lt;/b&gt;&lt;/font&gt;" style="text;html=1;align=center;verticalAlign=middle;resizable=0;points=[];autosize=1;strokeColor=none;fillColor=none;" vertex="1" parent="1">
          <mxGeometry x="902" y="606" width="90" height="30" as="geometry" />
        </mxCell>
      </root>
    </mxGraphModel>
  </diagram>
</mxfile>
